<svg width="53" height="42" viewBox="0 0 53 42" fill="none" xmlns="http://www.w3.org/2000/svg">
<path d="M6.13037 0.904297H8.09912H16.6304H18.5991V4.8418H16.6304H10.0679V16.6543H14.0054H15.9741V20.5918H14.0054H10.0679V38.3105V40.2793H8.09912H2.19287H0.224121V36.3418H2.19287H6.13037V20.5918H2.19287H0.224121V16.6543H2.19287H6.13037V2.87305V0.904297ZM22.5366 27.1543C22.5366 31.9121 23.8491 36.2598 26.146 39.9512L22.7827 42.002C20.1577 37.7363 18.5991 32.6504 18.5991 27.1543C18.5991 21.7402 20.1577 16.6543 22.7827 12.3887L26.146 14.4395C23.8491 18.1309 22.5366 22.4785 22.5366 27.1543ZM48.7866 27.1543C48.7866 22.4785 47.3921 18.1309 45.0952 14.4395L48.4585 12.3887C51.1655 16.6543 52.7241 21.7402 52.7241 27.1543C52.7241 32.6504 51.1655 37.7363 48.4585 42.002L45.0952 39.9512C47.3921 36.2598 48.7866 31.9121 48.7866 27.1543ZM32.4624 21.166L35.6616 24.3652L38.8608 21.166L40.2554 19.7715L42.9624 22.5605L41.5679 23.9551L38.3687 27.1543L41.5679 30.3535L42.9624 31.748L40.2554 34.5371L38.8608 33.1426L35.6616 29.9434L32.4624 33.1426L31.0679 34.5371L28.2788 31.748L29.6733 30.3535L32.8726 27.1543L29.6733 23.9551L28.2788 22.5605L31.0679 19.8535L32.4624 21.248V21.166Z" fill="white"/>
</svg>
