<svg width="53" height="32" viewBox="0 0 53 32" fill="none" xmlns="http://www.w3.org/2000/svg">
<path d="M4.16162 4.0918V27.7168H48.7866V4.0918H4.16162ZM0.224121 0.154297H4.16162H48.7866H52.7241V4.0918V27.7168V31.6543H48.7866H4.16162H0.224121V27.7168V4.0918V0.154297ZM27.1304 8.0293H31.396C34.103 8.0293 36.3179 10.2441 36.3179 12.9512C36.3179 13.7715 36.0718 14.4277 35.8257 15.084C36.8921 15.9863 37.6304 17.3809 37.6304 18.8574C37.6304 21.6465 35.4155 23.7793 32.7085 23.7793H27.1304H25.1616V21.8105V21.1543V15.9043V10.6543V9.99805V8.0293H27.1304ZM29.0991 13.9355H31.396C31.8882 13.9355 32.3804 13.5254 32.3804 12.9512C32.3804 12.459 31.8882 11.9668 31.396 11.9668H29.0991V13.9355ZM32.7085 19.8418C33.2007 19.8418 33.6929 19.4316 33.6929 18.8574C33.6929 18.3652 33.2007 17.873 32.7085 17.873H31.396H29.0991V19.8418H32.7085ZM16.8765 8.0293L17.1226 8.68555L23.0288 23.4512L23.1929 23.7793H18.9272L18.189 21.8105H12.4468L11.6265 23.7793H7.36084L7.5249 23.4512L13.4312 8.68555L13.6772 8.0293H16.8765ZM16.5483 17.873L15.3179 14.6738L14.0054 17.873H16.5483Z" fill="white"/>
</svg>
