<svg width="49" height="43" viewBox="0 0 49 43" fill="none" xmlns="http://www.w3.org/2000/svg">
<path d="M3.50537 6.1543C3.50537 4.34961 4.48975 2.62695 6.13037 1.64258C7.68896 0.740234 9.73975 0.740234 11.3804 1.64258C12.939 2.62695 14.0054 4.34961 14.0054 6.1543C14.0054 8.04102 12.939 9.76367 11.3804 10.748C9.73975 11.6504 7.68896 11.6504 6.13037 10.748C4.48975 9.76367 3.50537 8.04102 3.50537 6.1543ZM4.65381 17.9668L4.32568 25.8418H6.78662L10.0679 29.123L14.0054 33.0605V40.9355V42.9043H10.0679V40.9355V29.7793H7.44287V40.9355V42.9043H3.50537V40.9355V29.7793H0.224121L0.388184 25.8418L0.880371 14.0293H16.6304L16.7124 15.998L15.3179 17.3926L12.8569 19.7715V17.9668H4.65381ZM35.0054 40.9355V33.0605L38.8608 29.123L42.1421 25.8418H44.6851L44.3569 17.9668H36.1538L36.0718 19.7715L33.6108 17.3926L32.2983 15.998L32.3804 14.0293H48.1304L48.6226 25.8418L48.7866 29.7793H45.5054V40.9355V42.9043H41.5679V40.9355V29.7793H38.9429V40.9355V42.9043H35.0054V40.9355ZM35.0054 6.1543C35.0054 4.34961 35.9897 2.62695 37.6304 1.64258C39.189 0.740234 41.2397 0.740234 42.8804 1.64258C44.439 2.62695 45.5054 4.34961 45.5054 6.1543C45.5054 8.04102 44.439 9.76367 42.8804 10.748C41.2397 11.6504 39.189 11.6504 37.6304 10.748C35.9897 9.76367 35.0054 8.04102 35.0054 6.1543ZM19.9937 21.9863L18.1069 23.873H30.9038L29.0171 21.9863L27.6226 20.5918L30.4116 17.8848L31.8062 19.2793L37.0562 24.5293L38.4507 25.9238L37.0562 27.3184L31.8062 32.5684L30.4116 33.9629L27.6226 31.0918L29.0171 29.6973L30.9038 27.8105H18.0249L19.9116 29.6973L21.3062 31.0918L18.5991 33.8809L17.2046 32.4863L11.9546 27.2363L10.5601 25.8418L11.9546 24.4473L17.2046 19.1973L18.5991 17.8027L21.3062 20.5918L19.9116 21.9863H19.9937Z" fill="white"/>
</svg>
